<?xml version="1.0" encoding="iso-8859-1"?>
<!-- Uploaded to: SVG Repo, www.svgrepo.com, Generator: SVG Repo Mixer Tools -->
<svg fill="#000000" height="800px" width="800px" version="1.1" id="Layer_1" xmlns="http://www.w3.org/2000/svg" xmlns:xlink="http://www.w3.org/1999/xlink" 
	 viewBox="0 0 512 512" xml:space="preserve">
<g>
	<g>
		<path d="M365.006,163.07V77.587c0-21.695-17.651-39.345-39.345-39.345h-27.542c-4.676,0-8.465,3.79-8.465,8.465
			s3.789,8.465,8.465,8.465h27.542c12.36,0,22.415,10.055,22.415,22.415v21.181c-59.95,12.384-115.177,37.712-160.097,73.495
			c-5.52,4.397-10.851,8.936-16.002,13.598v-36.417h20.507c4.676,0,8.465-3.79,8.465-8.465c0-4.675-3.789-8.465-8.465-8.465h-28.971
			c-10.933,0-21.211-4.257-28.944-11.989c-3.305-3.306-8.665-3.305-11.971,0c-3.306,3.306-3.306,8.666,0.001,11.971
			c8.906,8.906,20.205,14.55,32.447,16.333v53.516c-28.129,29.507-49.328,63.244-62.338,99.43c-2.174-0.165-4.362-0.276-6.578-0.276
			C38.638,301.499,0,340.137,0,387.629s38.638,86.13,86.131,86.13s86.13-38.638,86.13-86.13c0-39.346-26.529-72.59-62.633-82.845
			c16.845-45.157,47.427-86.239,88.901-119.279c41.993-33.453,93.517-57.342,149.547-69.435v47
			c-81.8,4.411-146.995,72.347-146.995,155.228c0,85.721,69.739,155.461,155.461,155.461c85.72,0,155.459-69.739,155.459-155.461
			C512,235.418,446.804,167.482,365.006,163.07z M94.599,387.628c0-13.253,1.129-26.444,3.345-39.475
			c16.982,5.093,29.396,20.858,29.396,39.476c0,22.725-18.488,41.212-41.211,41.212c-22.725,0-41.212-18.488-41.212-41.212
			c0-20.989,15.777-38.351,36.091-40.881c-2.217,13.5-3.34,27.159-3.34,40.88c0,4.675,3.79,8.465,8.465,8.465
			C90.81,396.093,94.599,392.302,94.599,387.628z M155.33,387.629c0,38.157-31.043,69.2-69.2,69.2c-38.157,0-69.2-31.043-69.2-69.2
			c0-38.157,31.043-69.2,69.201-69.2c0.404,0,0.802,0.024,1.204,0.03c-1.045,3.673-1.998,7.363-2.875,11.07
			c-31.288,0.889-56.472,26.599-56.472,58.099c0,32.06,26.082,58.142,58.142,58.142s58.141-26.082,58.141-58.142
			c0-26.781-18.207-49.379-42.889-56.097c0.876-3.574,1.845-7.132,2.889-10.674C133.655,328.851,155.33,355.749,155.33,387.629z
			 M356.541,326.763c4.676,0,8.465-3.79,8.465-8.465V211.957c54.878,4.328,98.211,50.368,98.211,106.341
			c0,58.822-47.854,106.676-106.676,106.676c-58.822,0-106.677-47.854-106.677-106.676c0-55.972,43.332-102.011,98.212-106.341
			v106.341C348.076,322.973,351.865,326.763,356.541,326.763z M356.541,456.828c-76.386,0-138.531-62.144-138.531-138.53
			c0-73.543,57.607-133.875,130.065-138.264v14.954c-64.222,4.366-115.142,58-115.142,123.31
			c0,68.157,55.45,123.606,123.607,123.606s123.606-55.449,123.606-123.606c0-65.311-50.918-118.945-115.141-123.31v-14.954
			c72.458,4.391,130.064,64.721,130.064,138.264C495.07,394.684,432.925,456.828,356.541,456.828z"/>
	</g>
</g>
</svg>